<svg xmlns="http://www.w3.org/2000/svg" xmlns:xlink="http://www.w3.org/1999/xlink" fill="none" version="1.1" width="44" height="44" viewBox="0 0 44 44"><rect x="5.5" y="6.5" width="32" height="31" rx="0" fill-opacity="0" stroke-opacity="1" stroke="#000000" fill="none" stroke-width="1"/><path d="M30.5,28.9188614L27.474342,19.84188612L26.525658999999997,20.15811388L29.5,29.0811405L29.5,31.5L14.5,31.5L14.5,28.9188614L11.47434169,19.84188612L10.52565831,20.15811388L13.5,29.0811386L13.5,32.5L30.5,32.5L30.5,28.9188614Z" fill-rule="evenodd" fill="#000000" fill-opacity="1"/><rect x="14" y="0" width="1" height="14" rx="0" fill="#000000" fill-opacity="1"/><rect x="13" y="20" width="4" height="1" rx="0" fill="#000000" fill-opacity="1"/><rect x="29" y="20" width="4" height="1" rx="0" fill="#000000" fill-opacity="1"/><g><path d="M17.328649541265868,12.37898165L16.62154244126587,11.671875L14.500448741265869,13.7929695L12.379354951265869,11.671875L11.67224806547587,12.37898165L13.79334214126587,14.5000763L11.671795845035868,16.621623L12.37890291126587,17.3287296L14.500448741265869,15.2071831L16.62199454126587,17.3287296L17.32910154126587,16.621623L15.207555541265869,14.5000763L17.328649541265868,12.37898165Z" fill-rule="evenodd" fill="#000000" fill-opacity="1"/></g><rect x="30" y="0" width="1" height="14" rx="0" fill="#000000" fill-opacity="1"/><g><path d="M33.3282008375,12.37898165L32.6210937375,11.671875L30.5000000375,13.7929695L28.3789062475,11.671875L27.67179936171,12.37898165L29.7928934375,14.5000763L27.67134714127,16.621623L28.3784542075,17.3287296L30.5000000375,15.2071831L32.6215458375,17.3287296L33.3286528375,16.621623L31.2071068375,14.5000763L33.3282008375,12.37898165Z" fill-rule="evenodd" fill="#000000" fill-opacity="1"/></g><rect x="21" y="32" width="1" height="12" rx="0" fill="#000000" fill-opacity="1"/><path d="M9,27L9.875,27L9.875,26L9,26L9,27ZM11.625,27L13.375,27L13.375,26L11.625,26L11.625,27ZM15.125,27L16.875,27L16.875,26L15.125,26L15.125,27ZM18.625,27L19.5,27L19.5,26L18.625,26L18.625,27Z" fill-rule="evenodd" fill="#5ABF38" fill-opacity="1"/><path d="M23,27L23.875,27L23.875,26L23,26L23,27ZM25.625,27L27.375,27L27.375,26L25.625,26L25.625,27ZM29.125,27L30.875,27L30.875,26L29.125,26L29.125,27ZM32.625,27L33.5,27L33.5,26L32.625,26L32.625,27Z" fill-rule="evenodd" fill="#5ABF38" fill-opacity="1"/><g transform="matrix(0.7071067690849304,-0.7071067690849304,0.7071067690849304,0.7071067690849304,-13.369660664258845,18.79272909099018)"><path d="M16,33.36407474453125L17.222849,32.92210674453125L22.7888618,30.91041234453125L23.8276367,30.53497314453125L18.8276367,25.53497314453125L18.4523923,26.57394234453125L16.44169211,32.14112664453125L16,33.36407474453125ZM22.0078344,30.12938494453125L17.6645411,31.699158644531252L19.2335021,27.35505224453125L22.0078344,30.12938494453125Z" fill-rule="evenodd" fill="#5ABF38" fill-opacity="1"/></g></svg>