<?xml version="1.0" standalone="no"?><!DOCTYPE svg PUBLIC "-//W3C//DTD SVG 1.1//EN" "http://www.w3.org/Graphics/SVG/1.1/DTD/svg11.dtd"><svg t="1783479935368" class="icon" viewBox="0 0 1024 1024" version="1.1" xmlns="http://www.w3.org/2000/svg" p-id="1759" xmlns:xlink="http://www.w3.org/1999/xlink" width="200" height="200"><path d="M974.08 711.253333H357.973333a37.973333 37.973333 0 0 0-37.973333 37.973334v56.746666H87.893333v-256h232.106667v56.746667a37.973333 37.973333 0 0 0 37.973333 37.973333h474.026667a37.973333 37.973333 0 0 0 37.973333-37.973333V417.28a37.973333 37.973333 0 0 0-37.973333-37.973333H357.973333a37.973333 37.973333 0 0 0-37.973333 37.973333v56.746667H87.893333v-256h232.106667v56.746666a37.973333 37.973333 0 0 0 37.973333 37.973334h331.946667a37.973333 37.973333 0 0 0 37.973333-37.973334V85.333333a37.973333 37.973333 0 0 0-37.973333-37.973333H357.973333a37.973333 37.973333 0 0 0-37.973333 37.973333v56.746667H87.893333V37.973333A37.973333 37.973333 0 0 0 11.946667 37.973333v948.053334a37.973333 37.973333 0 0 0 75.946666 0v-104.106667h232.106667V938.666667a37.973333 37.973333 0 0 0 37.973333 37.973333h616.106667a37.973333 37.973333 0 0 0 37.973333-37.973333v-189.44a37.973333 37.973333 0 0 0-37.973333-37.973334zM395.946667 455.253333h398.08v113.493334H395.946667z m0-331.946666h256v113.92H395.946667z m540.16 777.386666H395.946667v-113.92h540.16z" fill="#000000" p-id="1760"></path></svg>