<?xml version="1.0" standalone="no"?><!DOCTYPE svg PUBLIC "-//W3C//DTD SVG 1.1//EN" "http://www.w3.org/Graphics/SVG/1.1/DTD/svg11.dtd"><svg t="1782876493102" class="icon" viewBox="0 0 6141 1024" version="1.1" xmlns="http://www.w3.org/2000/svg" p-id="2709" xmlns:xlink="http://www.w3.org/1999/xlink" width="383.8125" height="64"><path d="M6141.231244 512.214093a48.789348 48.789348 0 0 1-12.538521 35.31257l-425.542059 462.645846a41.112702 41.112702 0 0 1-30.53599 13.562074 41.539183 41.539183 0 0 1-30.535991-13.476778 49.898197 49.898197 0 0 1 0-66.104449l358.243465-389.376527h-390.314784l-419.23015 455.480976a41.453887 41.453887 0 0 1-30.365399 13.391482 41.283295 41.283295 0 0 1-30.365398-13.391482 49.898197 49.898197 0 0 1 0-66.019152l358.243465-389.376528H4435.309983v383.832283a85.296063 85.296063 0 0 1-85.296063 85.296063h-2558.881892a85.296063 85.296063 0 0 1-85.296063-85.296063v-383.832283H652.770771l358.243464 389.291231a49.130532 49.130532 0 0 1 0 66.104449 41.624479 41.624479 0 0 1-30.365398 13.306186 41.197998 41.197998 0 0 1-30.280102-13.391482L531.138585 554.776829H141.079688l358.243465 389.291231a49.812901 49.812901 0 0 1 0 66.104449 41.283295 41.283295 0 0 1-30.365398 13.391482 40.94211 40.94211 0 0 1-30.365399-13.476778L12.794409 547.526663a48.53346 48.53346 0 0 1-12.538521-35.31257 49.130532 49.130532 0 0 1 12.538521-35.73905L438.677652 13.999789A41.027406 41.027406 0 0 1 469.128347 0.437715a40.430334 40.430334 0 0 1 30.365398 13.732666 49.642309 49.642309 0 0 1 12.453225 33.009576 49.301124 49.301124 0 0 1-12.538521 33.350761l-358.243465 388.950048h389.717712L950.112846 14.085085a40.856814 40.856814 0 0 1 30.365399-13.562074 40.430334 40.430334 0 0 1 30.365398 13.732666 49.130532 49.130532 0 0 1 12.79441 33.009576 49.557013 49.557013 0 0 1-12.879706 33.350761l-358.243465 388.950048h1053.321083v-383.832284a85.296063 85.296063 0 0 1 85.296063-85.296063h2558.881892a85.296063 85.296063 0 0 1 85.296063 85.296063v383.832284h1053.150491l-358.243465-389.035344a49.812901 49.812901 0 0 1-12.538521-33.180169 49.215828 49.215828 0 0 1 12.453225-33.35076 40.51563 40.51563 0 0 1 30.450694-13.562074 40.259742 40.259742 0 0 1 30.280103 13.817962l419.23015 455.225089h390.058896l-358.243465-389.035344a49.812901 49.812901 0 0 1-12.538521-33.180169 49.215828 49.215828 0 0 1 12.453225-33.35076 40.174446 40.174446 0 0 1 30.535991-13.732666 40.430334 40.430334 0 0 1 30.53599 13.817962l425.542059 462.56055a49.557013 49.557013 0 0 1 12.623817 33.265464l0.170592 2.38829z m-1791.217324 426.480315v-852.96063h-2558.881892v852.96063h2558.881892z" p-id="2710"></path></svg>